<svg width="622" height="85" viewBox="0 0 662 95" fill="none" xmlns="http://www.w3.org/2000/svg">
<path d="M1.41561e-07 78H19.7V77.2H15.9C12.3 77.2 10.8 76.6 10.8 75C10.8 73.8 11.6 72 13.1 69.4L26.9 44.7L39.8 69.8C41.1 71.9 41.9 73.5 41.9 74.7C41.9 76.4 40.2 77.2 36.1 77.2H33.8V78.1H59.3V77.2H57.4C53.9 77.2 53 75.3 49.4 69.4L33.5 38.5L47.5 14.9C51.3 8.49999 52.8 7.09999 56.1 7.09999H57.4V6.19999H39V7.09999H42.9C46.4 7.09999 47.8 7.7 47.8 9.2C47.8 10.4 47 12.2 45.4 14.7L32.4 36.5L20.3 12.9C19 10.4 16.3 7.9 14.7 7.4V7.2H20.7V6.3H1.8V7.2H3.1C6.1 7.2 8.3 8.6 11.6 15L25.9 42.8L10.9 69.5C7.2 75.9 5.5 77.4 1 77.4H1.41561e-07V78ZM63.0859 78H80.1859L111.486 12.9V70.9C111.486 75.7 110.886 77.1 105.686 77.1H102.686V78H129.786V77.1H125.886C120.586 77.1 120.086 75.7 120.086 70.9V13.2C120.086 8.4 120.586 7 125.886 7H129.786V6.1H112.586L81.2859 71.2V13.2C81.2859 8.4 81.9859 7 87.2859 7H90.0859V6.1H63.0859V7H66.8859C72.1859 7 72.7859 8.4 72.7859 13.2V70.9C72.7859 75.7 72.1859 77.1 66.8859 77.1H63.0859V78ZM142.891 78H179.691V77.1H171.491C166.191 77.1 165.691 76.6 165.691 71.8V7.9H172.091C182.591 7.9 186.091 9.8 186.891 19.4L187.191 23.5L189.191 23.4L187.591 0.299999L186.391 0.399998L186.891 6.1H135.691L136.191 0.299999L134.991 0.199994L133.291 23.4L135.291 23.5L135.691 19.4C136.191 9.8 139.891 7.9 150.491 7.9H157.091V71.8C157.091 76.6 156.591 77.1 151.291 77.1H142.891V78ZM222.168 78H249.168V77.1H246.368C241.068 77.1 240.368 75.7 240.368 70.9V7.9H270.568V70.9C270.568 75.7 269.968 77.1 264.768 77.1H261.768V78H288.868V77.1H284.968C279.668 77.1 279.168 75.7 279.168 70.9V13.2C279.168 8.4 279.668 7 284.968 7H288.868V6.1H222.168V7H225.968C231.268 7 231.868 8.4 231.868 13.2V70.9C231.868 75.7 231.268 77.1 225.968 77.1H222.168V78ZM309.173 8H317.173C331.073 8 338.473 15 338.473 28.1C338.473 41.2 331.073 48.2 317.173 48.2H310.973V14.7C310.973 12.4 310.473 10.1 309.173 8.49999V8ZM292.773 78H319.673V77.1H316.973C311.673 77.1 310.973 76.6 310.973 71.8V50H320.473C337.073 50 348.073 41.2 348.073 28.1C348.073 14.9 337.073 6.1 320.473 6.1H292.773V7H296.573C301.873 7 302.473 7.5 302.473 12.3V71.8C302.473 76.6 301.873 77.1 296.573 77.1H292.773V78ZM395.13 78.8C419.43 78.8 435.73 64.1 435.73 42C435.73 20 419.43 5.29999 395.13 5.29999C370.63 5.29999 354.33 20 354.33 42C354.33 64.1 370.63 78.8 395.13 78.8ZM395.53 77C374.93 77 363.93 64.1 363.93 40.2C363.93 18.7 374.73 7.09999 394.73 7.09999C415.13 7.09999 426.13 20 426.13 43.9C426.13 65.4 415.43 77 395.53 77ZM432.305 76.2V94.8H436.305V84.2C436.305 79.4 436.905 78 442.205 78H491.905C497.205 78 497.905 79.4 497.905 84.2V94.8H501.805V76.2H492.005V13.2C492.005 8.4 492.605 7 497.905 7H501.805V6.1H448.305V7H450.705C458.405 7 459.305 7.4 459.305 14.4V34.7C459.105 54.6 448.005 69.8 440.005 76.2H432.305ZM452.105 76.2C457.505 67.4 462.105 52.2 462.105 32.3V7.9H483.505V76.2H452.105ZM544.952 41.6H536.352C518.652 41.6 506.952 49.9 506.952 62.4C506.952 72.2 515.852 78.8 527.652 78.8C535.652 78.8 542.852 74.6 546.152 62.6H547.252C547.352 66.1 549.352 73.6 549.352 78.1V78.9C552.452 78 556.152 77.2 561.552 76.7L561.452 75.8L559.552 75.9C558.752 75.9 558.052 76 557.352 76C554.052 76 553.752 74.9 553.752 70.9V21.5C553.752 11 546.052 5.29999 531.852 5.29999C525.252 5.29999 520.052 7.4 516.652 9.7C515.952 10.2 515.052 11.7 514.952 12L514.152 11.8C514.352 11.1 514.452 10 514.652 8.6L514.952 3.3H513.852L512.652 26.9H514.652L514.952 20.7C515.352 12.9 521.052 7.09999 531.952 7.09999C540.452 7.09999 544.952 11.6 544.952 20.2V41.6ZM544.952 43.4V55.4C544.952 69.7 536.752 76.1 529.052 76.1C521.552 76.1 516.452 70.6 516.452 62.4C516.452 51 524.652 43.4 536.952 43.4H544.952ZM597.33 78H625.33V77.1H621.53C616.23 77.1 615.53 76.5 615.53 70.9V35.7H616.33C630.23 35.7 633.53 45.8 635.73 56.2C638.03 67.4 639.13 79.1 650.93 79.1C653.73 79.1 656.83 77.9 659.93 75.4L661.33 74.4L660.63 73.7L659.23 74.7C657.23 76.1 655.53 76.7 654.03 76.7C645.63 76.7 646.73 66 644.53 55.2C642.63 46.3 638.33 37.3 624.43 34.4L624.33 34L641.83 13.9C646.53 8.6 653.23 7 658.03 7H659.33V6.1H635.03V7H636.03C639.43 7 641.73 7.8 641.73 9.7C641.73 10.7 641.23 11.9 639.93 13.5L622.53 33.4C621.53 34.6 619.83 34.8 615.93 34.8V12.3C615.93 7.5 616.53 7 621.83 7H622.83V6.1H600.43V7H601.53C606.73 7 607.33 7.5 607.33 12.3V34.8C603.83 34.8 601.83 34.6 600.83 33.5L583.43 13.6C582.13 12 581.63 10.8 581.63 9.8C581.63 7.9 583.93 7.09999 587.33 7.09999H588.33V6.19999H563.93V7.09999H565.33C570.13 7.09999 576.83 8.7 581.43 14L598.93 34.1L598.83 34.5C585.03 37.4 580.73 46.4 578.83 55.3C576.63 66.1 577.73 76.8 569.23 76.8C567.83 76.8 566.03 76.2 564.13 74.8L562.63 73.8L562.03 74.5L563.43 75.5C566.53 78 569.63 79.2 572.43 79.2C584.23 79.2 585.33 67.5 587.63 56.3C589.83 45.9 593.13 35.8 607.03 35.8H607.73V71C607.73 76.6 607.23 77.2 601.93 77.2H598.03L597.33 78Z" fill="white"/>
</svg>
