<svg width="64" height="63" viewBox="0 0 64 63" fill="none" xmlns="http://www.w3.org/2000/svg">
<path d="M32.25 63C38.4801 63 44.5703 61.1526 49.7505 57.6913C54.9306 54.23 58.968 49.3104 61.3522 43.5545C63.7364 37.7987 64.3602 31.4651 63.1447 25.3547C61.9293 19.2443 58.9292 13.6315 54.5239 9.22615C50.1185 4.8208 44.5057 1.82071 38.3953 0.605278C32.2849 -0.610156 25.9513 0.0136485 20.1955 2.39781C14.4396 4.78197 9.51997 8.8194 6.05871 13.9995C2.59744 19.1797 0.75 25.2699 0.75 31.5C0.758339 39.8518 4.07976 47.8591 9.98535 53.7647C15.8909 59.6702 23.8982 62.9917 32.25 63ZM32.25 10.5C36.4034 10.5 40.4635 11.7316 43.917 14.0391C47.3704 16.3467 50.062 19.6264 51.6515 23.4637C53.2409 27.3009 53.6568 31.5233 52.8465 35.5969C52.0362 39.6705 50.0361 43.4123 47.0992 46.3492C44.1623 49.2861 40.4205 51.2862 36.3469 52.0965C32.2733 52.9068 28.0509 52.4909 24.2136 50.9015C20.3764 49.312 17.0966 46.6204 14.7891 43.167C12.4816 39.7135 11.25 35.6534 11.25 31.5C11.25 25.9305 13.4625 20.589 17.4008 16.6508C21.339 12.7125 26.6805 10.5 32.25 10.5Z" fill="white"/>
</svg>
