<svg width="95" height="53" viewBox="0 0 95 53" fill="none" xmlns="http://www.w3.org/2000/svg">
<path d="M47.25 0.499786C34.7228 0.513682 22.7126 5.49626 13.8545 14.3543C4.99647 23.2124 0.013896 35.2226 0 47.7498C0 49.1422 0.553123 50.4776 1.53769 51.4621C2.52225 52.4467 3.85761 52.9998 5.25 52.9998C6.64239 52.9998 7.97774 52.4467 8.96231 51.4621C9.94687 50.4776 10.5 49.1422 10.5 47.7498C10.5 38.0031 14.3719 28.6556 21.2638 21.7636C28.1558 14.8717 37.5033 10.9998 47.25 10.9998C56.9967 10.9998 66.3442 14.8717 73.2362 21.7636C80.1281 28.6556 84 38.0031 84 47.7498C84 49.1422 84.5531 50.4776 85.5377 51.4621C86.5222 52.4467 87.8576 52.9998 89.25 52.9998C90.6424 52.9998 91.9777 52.4467 92.9623 51.4621C93.9469 50.4776 94.5 49.1422 94.5 47.7498C94.4861 35.2226 89.5035 23.2124 80.6454 14.3543C71.7873 5.49626 59.7772 0.513682 47.25 0.499786Z" fill="white"/>
</svg>
