<svg width="21" height="21" viewBox="0 0 21 21" fill="none" xmlns="http://www.w3.org/2000/svg">
<g clip-path="url(#clip0_91_1079)">
<path d="M19.2688 3.48469C19.0354 3.20453 18.7431 2.97921 18.4128 2.82473C18.0824 2.67025 17.7221 2.5904 17.3575 2.59084H3.93895L3.90409 2.29953C3.83276 1.69402 3.54173 1.13573 3.08618 0.730506C2.63063 0.325283 2.04222 0.101297 1.43252 0.101013L1.24828 0.101013C1.02816 0.101013 0.817064 0.188453 0.661419 0.344098C0.505775 0.499742 0.418335 0.710841 0.418335 0.930956C0.418335 1.15107 0.505775 1.36217 0.661419 1.51781C0.817064 1.67346 1.02816 1.7609 1.24828 1.7609H1.43252C1.63581 1.76093 1.83201 1.83556 1.98392 1.97064C2.13582 2.10572 2.23287 2.29185 2.25666 2.49374L3.39866 12.2041C3.51722 13.2139 4.00242 14.1451 4.76218 14.8209C5.52193 15.4966 6.50335 15.8699 7.52015 15.8699H16.1872C16.4074 15.8699 16.6185 15.7825 16.7741 15.6268C16.9297 15.4712 17.0172 15.2601 17.0172 15.04C17.0172 14.8199 16.9297 14.6088 16.7741 14.4531C16.6185 14.2975 16.4074 14.21 16.1872 14.21H7.52015C7.00646 14.2086 6.5058 14.0483 6.08679 13.7511C5.66778 13.454 5.35094 13.0345 5.17971 12.5502H15.0726C16.0456 12.5502 16.9876 12.2084 17.7341 11.5845C18.4806 10.9605 18.9842 10.0941 19.1568 9.1366L19.8083 5.52303C19.8733 5.1645 19.8587 4.79605 19.7655 4.4438C19.6722 4.09155 19.5027 3.76411 19.2688 3.48469ZM18.1791 5.2284L17.5268 8.84197C17.4231 9.41712 17.1205 9.93749 16.6718 10.312C16.2231 10.6864 15.657 10.8912 15.0726 10.8903H4.91579L4.13482 4.25073H17.3575C17.4794 4.25 17.6 4.27614 17.7106 4.32729C17.8213 4.37845 17.9193 4.45335 17.9978 4.54669C18.0762 4.64003 18.1331 4.7495 18.1645 4.86732C18.1958 4.98514 18.2008 5.10843 18.1791 5.2284Z" fill="#0B3F37"/>
<path d="M6.22788 20.0196C7.14461 20.0196 7.88776 19.2765 7.88776 18.3597C7.88776 17.443 7.14461 16.6999 6.22788 16.6999C5.31115 16.6999 4.56799 17.443 4.56799 18.3597C4.56799 19.2765 5.31115 20.0196 6.22788 20.0196Z" fill="#0B3F37"/>
<path d="M14.5273 20.0196C15.444 20.0196 16.1872 19.2765 16.1872 18.3597C16.1872 17.443 15.444 16.6999 14.5273 16.6999C13.6106 16.6999 12.8674 17.443 12.8674 18.3597C12.8674 19.2765 13.6106 20.0196 14.5273 20.0196Z" fill="#0B3F37"/>
</g>
<defs>
<clipPath id="clip0_91_1079">
<rect width="19.9186" height="19.9186" fill="white" transform="translate(0.418335 0.101013)"/>
</clipPath>
</defs>
</svg>
